Coordinates
version=1
nRows=12
nColumns=46
inDegrees=yes

Units are S.I. units (second, meters, Newtons, ...)
Angles are in degrees.

endheader
time	pelvis_tilt	pelvis_list	pelvis_rotation	pelvis_tx	pelvis_ty	pelvis_tz	bb_angle	bb_tx	bb_ty	bb_tz	hip_flexion_r	hip_adduction_r	hip_rotation_r	knee_angle_r	knee_angle_r_beta	ankle_angle_r	subtalar_angle_r	mtp_angle_r	crank_angle_r	hip_flexion_l	hip_adduction_l	hip_rotation_l	knee_angle_l	knee_angle_l_beta	ankle_angle_l	subtalar_angle_l	mtp_angle_l	crank_angle_l	lumbar_extension	lumbar_bending	lumbar_rotation	arm_flex_r	arm_add_r	arm_rot_r	elbow_flex_r	pro_sup_r	wrist_flex_r	wrist_dev_r	arm_flex_l	arm_add_l	arm_rot_l	elbow_flex_l	pro_sup_l	wrist_flex_l	wrist_dev_l
      5.00000000	    -13.53226302	     -5.85626292	     -9.25531784	      0.14483354	      1.16261282	     -0.25579717	      0.00000000	      0.50000000	      0.00000000	      0.25000000	     93.82985977	      0.50060371	     -6.74206333	    104.42060145	      1.82248330	    -18.75076106	     -7.44739297	      0.00000000	      0.00000000	     38.17767541	    -16.40166077	     -8.53153810	     49.28883620	      0.86025248	      4.20437102	     -0.81979115	      0.00000000	      0.00000000	    -61.37857142	      5.00750179	     10.32639283	     89.87100783	      1.62742401	     30.48328874	     44.36776091	     20.05215673	      0.00000000	      0.00000000	     89.76846655	    -25.15907085	     51.71361812	     45.06277417	     24.78073469	      0.00000000	      0.00000000
      5.00500000	    -13.72372308	     -5.56888105	     -9.42128910	      0.14435644	      1.16379323	     -0.25579941	      0.00000000	      0.50000000	      0.00000000	      0.25000000	     93.43082396	      0.77078668	     -6.47407609	    102.98507283	      1.79742860	    -17.39111080	     -7.30787690	      0.00000000	      0.00000000	     38.99666424	    -16.44088246	     -8.58883487	     51.27554066	      0.89492701	      3.43918624	     -1.09079517	      0.00000000	      0.00000000	    -61.41020692	      4.96198422	     10.14557374	     89.87275454	      1.92852856	     30.41265393	     44.59137825	     20.06023736	      0.00000000	      0.00000000	     89.78605771	    -25.25110857	     51.74001941	     45.11486944	     24.77012030	      0.00000000	      0.00000000
      5.01000000	    -14.45288421	     -5.63016623	     -9.41927237	      0.14367247	      1.16388076	     -0.25624685	      0.00000000	      0.50000000	      0.00000000	      0.25000000	     93.29175275	      0.89828036	     -6.42949505	    101.34080083	      1.76873064	    -14.76274231	     -5.23149991	      0.00000000	      0.00000000	     40.69546075	    -16.65923974	     -7.95543240	     53.53128810	      0.93429723	      2.74898171	     -1.65714776	      0.00000000	      0.00000000	    -61.15194583	      5.66880827	      9.96965987	     89.87387520	      3.57417225	     28.89626970	     44.68540174	     19.52708148	      0.00000000	      0.00000000	     89.78648117	    -26.95010579	     52.37211409	     46.22019087	     24.67792299	      0.00000000	      0.00000000
      5.01500000	    -14.93244022	     -5.53037665	     -9.39760642	      0.14308569	      1.16423503	     -0.25661351	      0.00000000	      0.50000000	      0.00000000	      0.25000000	     92.84821998	      1.04385854	     -6.23056904	     99.64543198	      1.73914087	    -12.70350709	     -4.09954362	      0.00000000	      0.00000000	     42.11569290	    -16.69937681	     -7.45338593	     55.76281077	      0.97324465	      2.06245355	     -2.06769538	      0.00000000	      0.00000000	    -61.00134650	      6.03794209	      9.93170658	     89.87542124	      4.03341506	     28.73299557	     44.98607498	     19.48030579	      0.00000000	      0.00000000	     89.79439388	    -27.26851723	     52.16559203	     46.28631765	     24.60391447	      0.00000000	      0.00000000
      5.02000000	    -15.39655822	     -5.38610510	     -9.29276146	      0.14264468	      1.16444896	     -0.25707630	      0.00000000	      0.50000000	      0.00000000	      0.25000000	     92.28151599	      1.12746878	     -5.94508554	     97.89231346	      1.70854318	    -10.41719918	     -2.79015426	      0.00000000	      0.00000000	     43.55965355	    -16.60439524	     -6.85118603	     58.00349177	      1.01235191	      1.46043093	     -2.46463067	      0.00000000	      0.00000000	    -60.84471917	      6.42957774	      9.79164157	     89.87641448	      4.58031393	     28.39092322	     45.22801557	     19.40599136	      0.00000000	      0.00000000	     89.80135046	    -27.62752054	     51.99977425	     46.45051294	     24.54009478	      0.00000000	      0.00000000
      5.02500000	    -15.81994066	     -5.20270195	     -9.13820467	      0.14221313	      1.16465366	     -0.25749517	      0.00000000	      0.50000000	      0.00000000	      0.25000000	     91.55888633	      1.20260999	     -5.59011019	     96.04684542	      1.67633369	     -8.02076430	     -1.36173753	      0.00000000	      0.00000000	     44.98224104	    -16.39936548	     -6.20055012	     60.21184197	      1.05089489	      0.91007227	     -2.80741807	      0.00000000	      0.00000000	    -60.77844489	      6.85043938	      9.39785483	     89.87689472	      5.73014646	     27.16219412	     45.44116789	     18.93946932	      0.00000000	      0.00000000	     89.80603044	    -28.48657818	     51.93802452	     47.14988984	     24.28943129	      0.00000000	      0.00000000
      5.03000000	    -16.22992946	     -5.02921908	     -8.99456039	      0.14175127	      1.16463858	     -0.25774025	      0.00000000	      0.50000000	      0.00000000	      0.25000000	     90.73542947	      1.31667500	     -5.27500763	     94.10828861	      1.64249949	     -5.81593371	     -0.51000222	      0.00000000	      0.00000000	     46.42107882	    -16.20286756	     -5.54644463	     62.43643379	      1.08972134	      0.48323847	     -3.06738007	      0.00000000	      0.00000000	    -60.62849297	      7.17205159	      9.24745823	     89.87731186	      6.07560202	     27.09440733	     45.74084937	     18.93856391	      0.00000000	      0.00000000	     89.81126199	    -28.55700814	     51.70697632	     47.13447354	     24.22269289	      0.00000000	      0.00000000
      5.03500000	    -16.58680000	     -4.85491781	     -8.76887811	      0.14148138	      1.16455442	     -0.25798949	      0.00000000	      0.50000000	      0.00000000	      0.25000000	     89.74381445	      1.35783860	     -4.97971858	     92.12887883	      1.60795227	     -3.49190728	      0.32314954	      0.00000000	      0.00000000	     47.83506571	    -15.91795406	     -4.84244185	     64.67538784	      1.12879846	      0.05552311	     -3.36591266	      0.00000000	      0.00000000	    -60.52323810	      7.51597038	      9.09686441	     89.87824766	      6.40699417	     26.85074996	     45.98609613	     18.92263897	      0.00000000	      0.00000000	     89.81613823	    -28.55130953	     51.41197051	     47.14397024	     24.15611937	      0.00000000	      0.00000000
      5.04000000	    -16.91812631	     -4.59878285	     -8.48127380	      0.14120564	      1.16429782	     -0.25851792	      0.00000000	      0.50000000	      0.00000000	      0.25000000	     88.66727198	      1.32037108	     -4.61239350	     90.05908483	      1.57182755	     -1.33441047	      0.98396518	      0.00000000	      0.00000000	     49.24689314	    -15.47538722	     -4.17626090	     66.90098370	      1.16764244	     -0.36588872	     -3.80645155	      0.00000000	      0.00000000	    -60.37917253	      7.80785431	      8.81765384	     89.87857287	      6.67646436	     26.55272610	     46.25171108	     18.90664324	      0.00000000	      0.00000000	     89.82010320	    -28.43646254	     51.08196672	     47.08738403	     24.07466324	      0.00000000	      0.00000000
      5.04500000	    -17.17779281	     -4.35525832	     -8.14007778	      0.14100617	      1.16387856	     -0.25895767	      0.00000000	      0.50000000	      0.00000000	      0.25000000	     87.44892232	      1.29831907	     -4.26209819	     87.94987729	      1.53501494	      0.70777613	      1.26241805	      0.00000000	      0.00000000	     50.61604155	    -15.01133430	     -3.53777900	     69.14575190	      1.20682103	     -0.73722186	     -4.29675988	      0.00000000	      0.00000000	    -60.27183958	      8.08080335	      8.55132692	     89.87807230	      6.86825700	     26.23793697	     46.50651748	     18.89433227	      0.00000000	      0.00000000	     89.82232232	    -28.16999786	     50.69037685	     46.97823931	     23.98658630	      0.00000000	      0.00000000
      5.05000000	    -17.43063163	     -4.11696259	     -7.70746213	      0.14086847	      1.16322758	     -0.25957298	      0.00000000	      0.50000000	      0.00000000	      0.25000000	     86.18462622	      1.15894870	     -4.02408654	     85.76551948	      1.49689070	      2.35053228	      1.13503307	      0.00000000	      0.00000000	     52.03357006	    -14.42883748	     -2.84642759	     71.42015404	      1.24651684	     -1.12875385	     -4.92617693	      0.00000000	      0.00000000	    -60.13349594	      8.38723909	      8.31476585	     89.87817471	      6.93185253	     25.85347265	     46.77556421	     18.87269180	      0.00000000	      0.00000000	     89.82447676	    -27.72821029	     50.19621279	     46.80701803	     23.87514708	      0.00000000	      0.00000000
      5.05500000	    -17.55604611	     -3.68338705	     -7.35077154	      0.14082120	      1.16253252	     -0.25979925	      0.00000000	      0.50000000	      0.00000000	      0.25000000	     84.78773440	      1.04852786	     -3.63252987	     83.56364372	      1.45846072	      3.94133048	      0.71028760	      0.00000000	      0.00000000	     53.26626670	    -13.81852208	     -2.50965737	     73.65963362	      1.28560313	     -1.38851069	     -5.40022050	      0.00000000	      0.00000000	    -60.00983126	      8.37964952	      7.85513251	     89.87758193	      6.86565325	     25.65563095	     46.95077948	     18.86513542	      0.00000000	      0.00000000	     89.82710393	    -27.40384755	     49.92867144	     46.73984764	     23.81898022	      0.00000000	      0.00000000
